HIERARCHY
ROOT Root
{
	OFFSET 0.00000 0.00000 0.00000
	CHANNELS 6 Xposition Yposition Zposition Zrotation Xrotation Yrotation
	JOINT Hip
	{
		OFFSET 0 0 0	
		CHANNELS 3 Zrotation Xrotation Yrotation
		JOINT Tummy
		{
			OFFSET 0 0.04 0	
			CHANNELS 3 Zrotation Xrotation Yrotation
			JOINT ChestBottom
			{
				OFFSET 0 0.194 0	
				CHANNELS 3 Zrotation Xrotation Yrotation
				JOINT ChestTop
				{
					OFFSET 0 0.166 0	
					CHANNELS 3 Zrotation Xrotation Yrotation
					JOINT LeftCollar
					{
						OFFSET 0 0.1 0	
						CHANNELS 3 Zrotation Xrotation Yrotation
						JOINT LeftUpperArm
						{
							OFFSET 0.156 -0.02 0.03	
							CHANNELS 3 Zrotation Xrotation Yrotation
							JOINT LeftForeArm
							{
								OFFSET 0.035 -0.27 -0.01	
								CHANNELS 3 Zrotation Xrotation Yrotation
								JOINT LeftHand
								{
									OFFSET 0.01 -0.27 0.01	
									CHANNELS 3 Zrotation Xrotation Yrotation
									End Site
									{
										OFFSET 0 -0.15 0
									}
								}
							}
						}
					}
					JOINT RightCollar
					{
						OFFSET 0 0.1 0	
						CHANNELS 3 Zrotation Xrotation Yrotation
						JOINT RightUpperArm
						{
							OFFSET -0.156 -0.02 0.03	
							CHANNELS 3 Zrotation Xrotation Yrotation
							JOINT RightForeArm
							{
								OFFSET -0.035 -0.27 -0.01	
								CHANNELS 3 Zrotation Xrotation Yrotation
								JOINT RightHand
								{
									OFFSET -0.01 -0.27 0.01	
									CHANNELS 3 Zrotation Xrotation Yrotation
									End Site
									{
										OFFSET 0 -0.15 0
									}
								}
							}
						}
					}
					JOINT Neck
					{
						OFFSET 0 0.1 0	
						CHANNELS 3 Zrotation Xrotation Yrotation
						JOINT Head
						{
							OFFSET 0 0.127 0.03	
							CHANNELS 3 Zrotation Xrotation Yrotation
							End Site
							{
								OFFSET 0 0.127 0.03
							}
						}
					}
				}
			}
		}
	}
	JOINT LeftHip
	{
		OFFSET 0 0 0	
		CHANNELS 3 Zrotation Xrotation Yrotation
		JOINT LeftThigh
		{
			OFFSET 0.088 -0.06 0	
			CHANNELS 3 Zrotation Xrotation Yrotation
			JOINT LeftLowerLeg
			{
				OFFSET 0 -0.39 0.02	
				CHANNELS 3 Zrotation Xrotation Yrotation
				JOINT LeftFootTop
				{
					OFFSET 0 -0.43 -0.02	
					CHANNELS 3 Zrotation Xrotation Yrotation
					JOINT LeftFootFront
					{
						OFFSET 0 -0.07 0.085	
						CHANNELS 3 Zrotation Xrotation Yrotation
						End Site
						{
							OFFSET 0 -0.005 0.09
						}
					}
				}
				JOINT LeftHeel
				{
					OFFSET 0 -0.43 -0.02	
					CHANNELS 3 Zrotation Xrotation Yrotation
					End Site
					{
						OFFSET 0 -0.075 -0.05
					}
				}
			}
		}
	}
	JOINT RightHip
	{
		OFFSET 0 0 0	
		CHANNELS 3 Zrotation Xrotation Yrotation
		JOINT RightThigh
		{
			OFFSET -0.088 -0.06 0	
			CHANNELS 3 Zrotation Xrotation Yrotation
			JOINT RightLowerLeg
			{
				OFFSET 0 -0.39 0.02	
				CHANNELS 3 Zrotation Xrotation Yrotation
				JOINT RightFootTop
				{
					OFFSET 0 -0.43 -0.02	
					CHANNELS 3 Zrotation Xrotation Yrotation
					JOINT RightFootFront
					{
						OFFSET 0 -0.07 0.085	
						CHANNELS 3 Zrotation Xrotation Yrotation
						End Site
						{
							OFFSET 0 -0.005 0.09
						}
					}
				}
				JOINT RightHeel
				{
					OFFSET 0 -0.43 -0.02	
					CHANNELS 3 Zrotation Xrotation Yrotation
					End Site
					{
						OFFSET 0 -0.075 -0.05
					}
				}
			}
		}
	}
}
MOTION
Frames: 12
Frame Time: 0.05
0 0.955 0 -0 0 -0 0.89008 0.078299 -129.89 2.7899 0.92729 21.496 2.7899 0.92729 21.496 2.3699 0.70949 18.06 -0 0 -0 1.6605 0.98874 -20.896 -51.477 -33.631 -49.203 148.38 -26.523 -134.17 -0 0 -0 -26.757 -28.168 -53.743 52.596 -72.963 20.265 -57.517 25.206 45.932 -9.2666 -23.554 -32.908 -9.2666 -23.554 -32.908 -0 0 -0 -0 0 -0 -0 0 -0 -0 0 -0 -0 0 -0 -0 0 -0 -0 0 -0 -0 0 -0 -0 0 -0 -0 0 -0 -0 0 -0 -0 0 -0 
0 0.955 0 -0 0 -0 0.55004 0.98321 -129.86 3.0861 0.75194 22.118 3.0861 0.75194 22.118 2.6153 0.55231 18.582 -0 0 -0 1.5578 1.8954 -22.072 -51.589 -33.444 -49.645 150.08 -27.21 -135.03 -0 0 -0 -23.399 -19.533 -52.16 56.644 -75.647 20.787 -52.391 22.013 43.07 -9.4554 -22.377 -34.147 -9.4554 -22.377 -34.147 -0 0 -0 -0 0 -0 -0 0 -0 -0 0 -0 -0 0 -0 -0 0 -0 -0 0 -0 -0 0 -0 -0 0 -0 -0 0 -0 -0 0 -0 -0 0 -0 
0 0.955 0 -0 0 -0 0.17119 1.6672 -129.9 3.4155 0.7459 22.656 3.4155 0.7459 22.656 2.8929 0.53655 19.035 -0 0 -0 1.2425 2.7097 -22.913 -52.126 -33.372 -50.235 158.74 -27.753 -131.5 -0 0 -0 -21.778 -11.796 -53.033 50.476 -73.245 9.4936 -44.942 15.266 39.374 -9.6339 -21.311 -35.107 -9.6339 -21.311 -35.107 -0 0 -0 -0 0 -0 -0 0 -0 -0 0 -0 -0 0 -0 -0 0 -0 -0 0 -0 -0 0 -0 -0 0 -0 -0 0 -0 -0 0 -0 -0 0 -0 
0 0.955 0 -0 0 -0 -0.23508 2.0346 -130.09 3.6233 0.95751 23.051 3.6233 0.95751 23.051 3.0739 0.70738 19.367 -0 0 -0 1.1908 3.0273 -23.7 -53.219 -34.052 -50.461 171.97 -26.716 -123.15 -0 0 -0 -20.851 -6.3711 -55.052 40.62 -66.82 -5.8288 -36.357 6.3967 37.44 -9.5584 -20.504 -35.675 -9.5584 -20.504 -35.675 -0 0 -0 -0 0 -0 -0 0 -0 -0 0 -0 -0 0 -0 -0 0 -0 -0 0 -0 -0 0 -0 -0 0 -0 -0 0 -0 -0 0 -0 -0 0 -0 
0 0.955 0 -0 0 -0 -0.36906 2.0902 -130.44 3.6807 1.0845 23.275 3.6807 1.0845 23.275 3.126 0.8117 19.556 -0 0 -0 1.9135 3.1565 -24.337 -54.61 -35.156 -50.387 -173.33 -19.751 -116.09 -0 0 -0 -19.276 -3.0697 -53.686 30.515 -63.264 -19.386 -29.492 0.66839 37.069 -9.163 -19.773 -36.027 -9.163 -19.773 -36.027 -0 0 -0 -0 0 -0 -0 0 -0 -0 0 -0 -0 0 -0 -0 0 -0 -0 0 -0 -0 0 -0 -0 0 -0 -0 0 -0 -0 0 -0 -0 0 -0 
0 0.955 0 -0 0 -0 -0.1244 1.8243 -130.72 3.5531 1.2491 23.409 3.5531 1.2491 23.409 3.0234 0.95316 19.669 -0 0 -0 3.0203 3.0137 -24.733 -56.05 -36.134 -50.732 -164.16 -8.4988 -115.28 -0 0 -0 -17.488 -2.1231 -53.023 27.261 -63.536 -26.581 -27.42 -1.6748 40.149 -8.8181 -19.474 -36.468 -8.8181 -19.474 -36.468 -0 0 -0 -0 0 -0 -0 0 -0 -0 0 -0 -0 0 -0 -0 0 -0 -0 0 -0 -0 0 -0 -0 0 -0 -0 0 -0 -0 0 -0 -0 0 -0 
0 0.955 0 -0 0 -0 0.54665 1.1613 -130.88 3.2937 1.5331 23.694 3.2937 1.5331 23.694 2.8136 1.1981 19.908 -0 0 -0 3.9771 2.4388 -25.429 -57.298 -36.795 -51.743 -162.94 -2.3014 -116.61 -0 0 -0 -18.209 -4.2417 -56.571 30.317 -63.742 -22.965 -29.362 0.92302 41.84 -8.8786 -19.909 -37.184 -8.8786 -19.909 -37.184 -0 0 -0 -0 0 -0 -0 0 -0 -0 0 -0 -0 0 -0 -0 0 -0 -0 0 -0 -0 0 -0 -0 0 -0 -0 0 -0 -0 0 -0 -0 0 -0 
0 0.955 0 -0 0 -0 1.5176 0.17686 -131.08 3.0569 1.8566 23.818 3.0569 1.8566 23.818 2.6237 1.4765 20.013 -0 0 -0 4.6564 1.5142 -25.981 -58.016 -37.333 -51.92 -165.39 -1.4812 -118.03 -0 0 -0 -20.166 -8.3109 -58.788 33.258 -64.356 -18.871 -34.112 4.0958 43.6 -8.9659 -20.709 -37.492 -8.9659 -20.709 -37.492 -0 0 -0 -0 0 -0 -0 0 -0 -0 0 -0 -0 0 -0 -0 0 -0 -0 0 -0 -0 0 -0 -0 0 -0 -0 0 -0 -0 0 -0 -0 0 -0 
0 0.955 0 -0 0 -0 2.6005 -0.98283 -131.28 2.8812 2.0228 23.56 2.8812 2.0228 23.56 2.4798 1.622 19.796 -0 0 -0 5.337 0.61536 -26.071 -58.115 -37.509 -50.429 -168.29 -1.873 -119.93 -0 0 -0 -21.914 -13.515 -57.768 33.371 -66.34 -16.507 -40.282 7.4198 44.419 -8.6054 -21.179 -37.172 -8.6054 -21.179 -37.172 -0 0 -0 -0 0 -0 -0 0 -0 -0 0 -0 -0 0 -0 -0 0 -0 -0 0 -0 -0 0 -0 -0 0 -0 -0 0 -0 -0 0 -0 -0 0 -0 
0 0.955 0 -0 0 -0 3.6558 -2.1544 -131.33 2.734 2.1227 23.154 2.734 2.1227 23.154 2.3575 1.7114 19.455 -0 0 -0 5.7593 -0.28947 -25.869 -57.672 -37.013 -48.93 -171.08 -2.2035 -123.15 -0 0 -0 -23.787 -19.589 -56.748 33.882 -67.381 -13.05 -46.541 10.408 44.843 -8.0115 -21.403 -36.687 -8.0115 -21.403 -36.687 -0 0 -0 -0 0 -0 -0 0 -0 -0 0 -0 -0 0 -0 -0 0 -0 -0 0 -0 -0 0 -0 -0 0 -0 -0 0 -0 -0 0 -0 -0 0 -0 
0 0.955 0 -0 0 -0 4.7034 -3.2641 -131.21 2.5465 2.4027 22.833 2.5465 2.4027 22.833 2.2064 1.9529 19.186 -0 0 -0 5.5611 -1.5781 -25.3 -57.022 -36.011 -48.818 -174.18 -3.4554 -126.79 -0 0 -0 -26.098 -26.096 -56.632 35.684 -67.282 -7.7049 -52.129 13.243 44.879 -7.4837 -21.922 -36.284 -7.4837 -21.922 -36.284 -0 0 -0 -0 0 -0 -0 0 -0 -0 0 -0 -0 0 -0 -0 0 -0 -0 0 -0 -0 0 -0 -0 0 -0 -0 0 -0 -0 0 -0 -0 0 -0 
0 0.955 0 -0 0 -0 5.8101 -4.2341 -130.91 2.452 2.6903 22.505 2.452 2.6903 22.505 2.1335 2.1982 18.91 -0 0 -0 4.9772 -2.5987 -24.211 -56.533 -35.006 -49.607 -177.51 -6.2821 -129.4 -0 0 -0 -27.945 -31.925 -55.079 35.663 -67.721 -3.8919 -56.553 16.17 44.558 -6.9974 -22.52 -35.791 -6.9974 -22.52 -35.791 -0 0 -0 -0 0 -0 -0 0 -0 -0 0 -0 -0 0 -0 -0 0 -0 -0 0 -0 -0 0 -0 -0 0 -0 -0 0 -0 -0 0 -0 -0 0 -0 
